<svg width="257" height="38" viewBox="0 0 257 38" fill="none" xmlns="http://www.w3.org/2000/svg">
<g clip-path="url(#clip0)">
<path d="M10.2 23.3294V14.693C10.2 14.216 9.81945 13.8294 9.35001 13.8294H0.850013C0.38057 13.8294 1.23978e-05 14.216 1.23978e-05 14.693V23.3294C1.23978e-05 23.8063 0.38057 24.193 0.850013 24.193H9.35001C9.81945 24.193 10.2 23.8063 10.2 23.3294Z" fill="#04B8F1"/>
<path d="M23.8 37.1211V25.0302C23.8 24.5533 23.4194 24.1666 22.95 24.1666H11.05C10.5805 24.1666 10.2 24.5533 10.2 25.0302V37.1211C10.2 37.5981 10.5805 37.9848 11.05 37.9848H22.95C23.4194 37.9848 23.8 37.5981 23.8 37.1211Z" fill="#083CF2"/>
<path d="M24.2923 23.4993L33.4865 11.0696C33.7685 10.6883 33.6929 10.1469 33.3176 9.86037L21.0842 0.518764C20.709 0.2322 20.1761 0.308994 19.8941 0.690287L10.7 13.1199C10.4179 13.5012 10.4935 14.0426 10.8688 14.3292L23.1022 23.6708C23.4774 23.9574 24.0103 23.8806 24.2923 23.4993Z" fill="#9100EA"/>
</g>
<path d="M57.1505 27.3419C56.3791 28.264 55.4271 28.9984 54.2946 29.5448C53.1621 30.0742 51.8573 30.3389 50.3801 30.3389C49.0342 30.3389 47.7868 30.1084 46.6379 29.6473C45.5054 29.1862 44.5206 28.5373 43.6835 27.7005C42.8465 26.8466 42.19 25.8305 41.714 24.6522C41.238 23.4739 41 22.176 41 20.7586C41 19.3071 41.238 17.9921 41.714 16.8138C42.2064 15.6355 42.8793 14.6365 43.7328 13.8167C44.5863 12.98 45.5875 12.3396 46.7364 11.8956C47.8853 11.4516 49.1245 11.2296 50.454 11.2296C51.6849 11.2296 52.8913 11.4601 54.0731 11.9212C55.2712 12.3652 56.2396 13.0227 56.9782 13.8936L54.1223 16.865C53.7284 16.3015 53.2114 15.8831 52.5713 15.6099C51.9311 15.3366 51.2746 15.2 50.6017 15.2C49.8631 15.2 49.1819 15.3452 48.5582 15.6355C47.951 15.9087 47.4257 16.2929 46.9826 16.7882C46.5394 17.2834 46.1948 17.8726 45.9486 18.5557C45.7024 19.2217 45.5793 19.956 45.5793 20.7586C45.5793 21.5783 45.7024 22.3297 45.9486 23.0128C46.1948 23.6959 46.5312 24.2851 46.958 24.7803C47.4011 25.2585 47.9263 25.6342 48.5336 25.9074C49.1409 26.1806 49.8056 26.3172 50.5278 26.3172C51.3649 26.3172 52.0953 26.1465 52.719 25.8049C53.3427 25.4634 53.8433 25.0194 54.2208 24.4729L57.1505 27.3419Z" fill="black"/>
<path d="M71.0747 23.4227C71.0747 24.4644 70.8941 25.4122 70.533 26.266C70.172 27.1028 69.6796 27.82 69.0559 28.4177C68.4322 28.9984 67.71 29.4509 66.8893 29.7754C66.0687 30.0998 65.1906 30.2621 64.255 30.2621C63.3359 30.2621 62.4578 30.0998 61.6207 29.7754C60.8001 29.4509 60.0779 28.9984 59.4542 28.4177C58.8469 27.82 58.3627 27.1028 58.0016 26.266C57.6405 25.4122 57.46 24.4644 57.46 23.4227C57.46 22.381 57.6405 21.4417 58.0016 20.6049C58.3627 19.7681 58.8469 19.0594 59.4542 18.4788C60.0779 17.8982 60.8001 17.4542 61.6207 17.1468C62.4578 16.8394 63.3359 16.6857 64.255 16.6857C65.1906 16.6857 66.0687 16.8394 66.8893 17.1468C67.71 17.4542 68.4322 17.8982 69.0559 18.4788C69.6796 19.0594 70.172 19.7681 70.533 20.6049C70.8941 21.4417 71.0747 22.381 71.0747 23.4227ZM67.1848 23.4227C67.1848 23.0128 67.1191 22.6115 66.9878 22.2187C66.8565 21.8259 66.6678 21.4844 66.4216 21.1941C66.1754 20.8867 65.8717 20.6391 65.5106 20.4512C65.1495 20.2634 64.731 20.1695 64.255 20.1695C63.779 20.1695 63.3605 20.2634 62.9994 20.4512C62.6383 20.6391 62.3347 20.8867 62.0885 21.1941C61.8587 21.4844 61.6782 21.8259 61.5469 22.2187C61.432 22.6115 61.3745 23.0128 61.3745 23.4227C61.3745 23.8325 61.432 24.2338 61.5469 24.6266C61.6782 25.0194 61.8669 25.378 62.1131 25.7025C62.3593 26.0099 62.6629 26.2575 63.024 26.4453C63.3851 26.6332 63.8037 26.7271 64.2796 26.7271C64.7556 26.7271 65.1742 26.6332 65.5352 26.4453C65.8963 26.2575 66.2 26.0099 66.4462 25.7025C66.6924 25.378 66.8729 25.0194 66.9878 24.6266C67.1191 24.2338 67.1848 23.8325 67.1848 23.4227Z" fill="black"/>
<path d="M88.9199 29.8522V22.8847C88.9199 22.5261 88.8953 22.1846 88.846 21.8601C88.7968 21.5186 88.7065 21.2282 88.5752 20.9892C88.4439 20.7501 88.2634 20.5622 88.0336 20.4256C87.8202 20.2719 87.533 20.1951 87.1719 20.1951C86.8272 20.1951 86.5236 20.2719 86.261 20.4256C86.0148 20.5793 85.8014 20.7842 85.6209 21.0404C85.4567 21.2966 85.3336 21.5954 85.2516 21.9369C85.1695 22.2614 85.1285 22.603 85.1285 22.9616V29.8522H81.0908V22.5773C81.0908 21.843 80.9513 21.2624 80.6723 20.8355C80.3933 20.4085 79.9501 20.1951 79.3428 20.1951C78.7027 20.1951 78.2021 20.4598 77.841 20.9892C77.4964 21.5186 77.324 22.1675 77.324 22.936V29.8522H73.2618V17.0956H77.1763V18.8631H77.2256C77.3733 18.5898 77.5538 18.3251 77.7672 18.069C77.997 17.8128 78.2678 17.5908 78.5796 17.403C78.8915 17.198 79.2362 17.0358 79.6137 16.9163C80.0076 16.7967 80.4343 16.7369 80.8939 16.7369C81.7802 16.7369 82.527 16.9248 83.1343 17.3005C83.758 17.6762 84.2422 18.2141 84.5868 18.9143C84.9972 18.2483 85.5224 17.7189 86.1625 17.3261C86.8026 16.9333 87.5822 16.7369 88.5014 16.7369C89.3384 16.7369 90.036 16.8992 90.594 17.2236C91.1685 17.531 91.6281 17.9409 91.9727 18.4532C92.3174 18.9484 92.5636 19.512 92.7113 20.1438C92.8755 20.7586 92.9575 21.3649 92.9575 21.9626V29.8522H88.9199Z" fill="black"/>
<path d="M109.276 23.4227C109.276 24.3107 109.145 25.1645 108.882 25.9842C108.62 26.8039 108.234 27.5297 107.725 28.1616C107.233 28.7764 106.625 29.2716 105.903 29.6473C105.181 30.023 104.36 30.2108 103.441 30.2108C102.686 30.2108 101.972 30.0571 101.299 29.7498C100.626 29.4253 100.101 28.9898 99.7237 28.4433H99.6745V36H95.6368V17.0956H99.4775V18.6581H99.5514C99.9289 18.1458 100.446 17.7018 101.102 17.3261C101.775 16.9333 102.563 16.7369 103.466 16.7369C104.352 16.7369 105.156 16.9163 105.879 17.2749C106.601 17.6335 107.208 18.1202 107.7 18.735C108.209 19.3498 108.595 20.067 108.858 20.8867C109.137 21.6893 109.276 22.5346 109.276 23.4227ZM105.362 23.4227C105.362 23.0128 105.296 22.6115 105.165 22.2187C105.05 21.8259 104.869 21.4844 104.623 21.1941C104.393 20.8867 104.098 20.6391 103.737 20.4512C103.376 20.2634 102.957 20.1695 102.481 20.1695C102.022 20.1695 101.611 20.2634 101.25 20.4512C100.889 20.6391 100.577 20.8867 100.315 21.1941C100.068 21.5015 99.8714 21.8516 99.7237 22.2443C99.5924 22.6371 99.5268 23.0384 99.5268 23.4483C99.5268 23.8581 99.5924 24.2594 99.7237 24.6522C99.8714 25.045 100.068 25.3951 100.315 25.7025C100.577 26.0099 100.889 26.2575 101.25 26.4453C101.611 26.6332 102.022 26.7271 102.481 26.7271C102.957 26.7271 103.376 26.6332 103.737 26.4453C104.098 26.2575 104.393 26.0099 104.623 25.7025C104.869 25.3951 105.05 25.045 105.165 24.6522C105.296 24.2424 105.362 23.8325 105.362 23.4227Z" fill="black"/>
<path d="M119.524 29.8522V28.0847H119.474C119.327 28.375 119.13 28.6483 118.883 28.9044C118.654 29.1606 118.375 29.3826 118.046 29.5704C117.734 29.7583 117.382 29.912 116.988 30.0315C116.61 30.1511 116.208 30.2108 115.781 30.2108C114.961 30.2108 114.263 30.0571 113.689 29.7498C113.131 29.4424 112.671 29.0496 112.31 28.5714C111.965 28.0762 111.711 27.5212 111.547 26.9064C111.399 26.2745 111.325 25.6342 111.325 24.9852V17.0956H115.387V24.0118C115.387 24.3704 115.412 24.712 115.461 25.0365C115.511 25.3609 115.601 25.6512 115.732 25.9074C115.88 26.1635 116.069 26.3685 116.298 26.5222C116.528 26.6588 116.832 26.7271 117.209 26.7271C117.915 26.7271 118.448 26.4539 118.81 25.9074C119.187 25.3609 119.376 24.7205 119.376 23.9862V17.0956H123.413V29.8522H119.524Z" fill="black"/>
<path d="M130.584 20.2463V25.1133C130.584 25.711 130.691 26.1635 130.904 26.4709C131.134 26.7612 131.536 26.9064 132.111 26.9064C132.307 26.9064 132.513 26.8893 132.726 26.8552C132.956 26.821 133.145 26.7698 133.292 26.7015L133.342 29.7754C133.062 29.8778 132.71 29.9632 132.283 30.0315C131.856 30.1169 131.429 30.1596 131.003 30.1596C130.182 30.1596 129.493 30.0571 128.935 29.8522C128.377 29.6302 127.925 29.3228 127.58 28.93C127.252 28.5202 127.014 28.042 126.867 27.4956C126.719 26.932 126.645 26.3087 126.645 25.6256V20.2463H124.675V17.0956H126.62V13.7399H130.584V17.0956H133.465V20.2463H130.584Z" fill="black"/>
<path d="M143.437 22.0138C143.437 21.3478 143.232 20.7757 142.822 20.2975C142.428 19.8194 141.829 19.5803 141.025 19.5803C140.631 19.5803 140.27 19.6486 139.941 19.7852C139.613 19.9048 139.326 20.0755 139.08 20.2975C138.833 20.5195 138.636 20.7842 138.489 21.0916C138.341 21.3819 138.259 21.6893 138.243 22.0138H143.437ZM147.155 23.6276C147.155 23.7984 147.155 23.9691 147.155 24.1399C147.155 24.3107 147.147 24.4729 147.13 24.6266H138.243C138.275 24.9852 138.374 25.3097 138.538 25.6C138.719 25.8903 138.94 26.1465 139.203 26.3685C139.482 26.5734 139.785 26.7356 140.114 26.8552C140.458 26.9747 140.811 27.0345 141.172 27.0345C141.812 27.0345 142.354 26.9149 142.797 26.6759C143.24 26.4197 143.601 26.0952 143.88 25.7025L146.687 27.5468C146.113 28.4177 145.349 29.0923 144.397 29.5704C143.462 30.0315 142.37 30.2621 141.123 30.2621C140.204 30.2621 139.334 30.1169 138.513 29.8266C137.693 29.5192 136.971 29.0837 136.347 28.5202C135.74 27.9396 135.255 27.2309 134.894 26.3941C134.55 25.5573 134.377 24.601 134.377 23.5251C134.377 22.4834 134.55 21.5442 134.894 20.7074C135.239 19.8535 135.707 19.1363 136.298 18.5557C136.888 17.958 137.586 17.4969 138.39 17.1724C139.195 16.8479 140.064 16.6857 141 16.6857C141.903 16.6857 142.732 16.8479 143.487 17.1724C144.242 17.4798 144.89 17.9323 145.432 18.53C145.973 19.1277 146.392 19.8535 146.687 20.7074C146.999 21.5612 147.155 22.5346 147.155 23.6276Z" fill="black"/>
<path d="M164.504 16.4296C164.143 15.9514 163.667 15.5757 163.077 15.3025C162.502 15.0122 161.944 14.867 161.402 14.867C161.123 14.867 160.836 14.8926 160.541 14.9438C160.262 14.9951 160.007 15.0975 159.777 15.2512C159.548 15.3878 159.351 15.5757 159.187 15.8148C159.039 16.0368 158.965 16.3271 158.965 16.6857C158.965 16.9931 159.022 17.2493 159.137 17.4542C159.269 17.6591 159.449 17.8384 159.679 17.9921C159.925 18.1458 160.212 18.291 160.541 18.4276C160.869 18.5471 161.238 18.6752 161.649 18.8118C162.239 19.0167 162.855 19.2473 163.495 19.5034C164.135 19.7425 164.718 20.067 165.243 20.4768C165.768 20.8867 166.203 21.399 166.548 22.0138C166.893 22.6115 167.065 23.3629 167.065 24.268C167.065 25.3097 166.876 26.2148 166.499 26.9833C166.138 27.7346 165.645 28.358 165.021 28.8532C164.398 29.3484 163.684 29.7156 162.88 29.9547C162.075 30.1938 161.246 30.3133 160.393 30.3133C159.146 30.3133 157.939 30.0913 156.774 29.6473C155.609 29.1862 154.64 28.5373 153.869 27.7005L156.626 24.7803C157.053 25.3268 157.611 25.7878 158.3 26.1635C159.006 26.5222 159.704 26.7015 160.393 26.7015C160.705 26.7015 161.008 26.6673 161.304 26.599C161.599 26.5307 161.854 26.4197 162.067 26.266C162.297 26.1123 162.477 25.9074 162.609 25.6512C162.74 25.3951 162.806 25.0877 162.806 24.7291C162.806 24.3875 162.724 24.0972 162.559 23.8581C162.395 23.619 162.157 23.4056 161.846 23.2177C161.55 23.0128 161.173 22.8335 160.713 22.6798C160.27 22.509 159.761 22.3297 159.187 22.1419C158.629 21.954 158.079 21.732 157.537 21.4759C157.012 21.2197 156.536 20.8952 156.109 20.5025C155.699 20.0926 155.362 19.6059 155.1 19.0424C154.854 18.4617 154.73 17.7616 154.73 16.9419C154.73 15.9343 154.927 15.0719 155.321 14.3547C155.715 13.6374 156.232 13.0483 156.872 12.5872C157.512 12.1261 158.235 11.7931 159.039 11.5882C159.843 11.3662 160.656 11.2552 161.476 11.2552C162.461 11.2552 163.462 11.443 164.48 11.8187C165.514 12.1944 166.417 12.7494 167.188 13.4837L164.504 16.4296Z" fill="black"/>
<path d="M182.251 23.4227C182.251 24.4644 182.07 25.4122 181.709 26.266C181.348 27.1028 180.856 27.82 180.232 28.4177C179.608 28.9984 178.886 29.4509 178.065 29.7754C177.245 30.0998 176.367 30.2621 175.431 30.2621C174.512 30.2621 173.634 30.0998 172.797 29.7754C171.976 29.4509 171.254 28.9984 170.63 28.4177C170.023 27.82 169.539 27.1028 169.178 26.266C168.817 25.4122 168.636 24.4644 168.636 23.4227C168.636 22.381 168.817 21.4417 169.178 20.6049C169.539 19.7681 170.023 19.0594 170.63 18.4788C171.254 17.8982 171.976 17.4542 172.797 17.1468C173.634 16.8394 174.512 16.6857 175.431 16.6857C176.367 16.6857 177.245 16.8394 178.065 17.1468C178.886 17.4542 179.608 17.8982 180.232 18.4788C180.856 19.0594 181.348 19.7681 181.709 20.6049C182.07 21.4417 182.251 22.381 182.251 23.4227ZM178.361 23.4227C178.361 23.0128 178.295 22.6115 178.164 22.2187C178.033 21.8259 177.844 21.4844 177.598 21.1941C177.351 20.8867 177.048 20.6391 176.687 20.4512C176.326 20.2634 175.907 20.1695 175.431 20.1695C174.955 20.1695 174.537 20.2634 174.176 20.4512C173.814 20.6391 173.511 20.8867 173.265 21.1941C173.035 21.4844 172.854 21.8259 172.723 22.2187C172.608 22.6115 172.551 23.0128 172.551 23.4227C172.551 23.8325 172.608 24.2338 172.723 24.6266C172.854 25.0194 173.043 25.378 173.289 25.7025C173.535 26.0099 173.839 26.2575 174.2 26.4453C174.561 26.6332 174.98 26.7271 175.456 26.7271C175.932 26.7271 176.35 26.6332 176.711 26.4453C177.072 26.2575 177.376 26.0099 177.622 25.7025C177.868 25.378 178.049 25.0194 178.164 24.6266C178.295 24.2338 178.361 23.8325 178.361 23.4227Z" fill="black"/>
<path d="M192.045 13.5862C191.898 13.535 191.725 13.4923 191.528 13.4581C191.331 13.424 191.134 13.4069 190.938 13.4069C190.56 13.4069 190.256 13.4752 190.027 13.6118C189.797 13.7484 189.616 13.9363 189.485 14.1754C189.354 14.3974 189.263 14.6535 189.214 14.9438C189.165 15.2342 189.14 15.5245 189.14 15.8148V17.0956H191.873V20.2463H189.14V29.8522H185.103V20.2463H182.862V17.0956H185.103V15.866C185.103 15.0805 185.185 14.3376 185.349 13.6374C185.513 12.9202 185.792 12.2969 186.186 11.7675C186.596 11.221 187.138 10.7941 187.811 10.4867C188.5 10.1622 189.354 10 190.371 10C190.716 10 191.052 10.0256 191.381 10.0768C191.725 10.111 192.037 10.1708 192.316 10.2562L192.045 13.5862Z" fill="black"/>
<path d="M196.818 20.2463V25.1133C196.818 25.711 196.924 26.1635 197.138 26.4709C197.368 26.7612 197.77 26.9064 198.344 26.9064C198.541 26.9064 198.746 26.8893 198.96 26.8552C199.189 26.821 199.378 26.7698 199.526 26.7015L199.575 29.7754C199.296 29.8778 198.943 29.9632 198.517 30.0315C198.09 30.1169 197.663 30.1596 197.236 30.1596C196.416 30.1596 195.726 30.0571 195.168 29.8522C194.61 29.6302 194.159 29.3228 193.814 28.93C193.486 28.5202 193.248 28.042 193.1 27.4956C192.952 26.932 192.879 26.3087 192.879 25.6256V20.2463H190.909V17.0956H192.854V13.7399H196.818V17.0956H199.698V20.2463H196.818Z" fill="black"/>
<path d="M216.835 29.8522H212.773L210.36 21.9113H210.311L207.948 29.8522H203.885L199.651 17.0956H204.008L206.126 25.1645H206.2L208.391 17.0956H212.453L214.718 25.1645H214.767L216.909 17.0956H221.095L216.835 29.8522Z" fill="black"/>
<path d="M229.541 24.2936H229.024C228.581 24.2936 228.13 24.3192 227.67 24.3704C227.227 24.4046 226.825 24.4814 226.464 24.601C226.119 24.7205 225.832 24.8998 225.602 25.1389C225.372 25.3609 225.258 25.6598 225.258 26.0355C225.258 26.2745 225.307 26.4795 225.405 26.6502C225.52 26.821 225.66 26.9576 225.824 27.0601C225.988 27.1626 226.177 27.2394 226.39 27.2906C226.603 27.3248 226.809 27.3419 227.006 27.3419C227.826 27.3419 228.45 27.1113 228.877 26.6502C229.32 26.1721 229.541 25.5317 229.541 24.7291V24.2936ZM222.131 18.8374C222.853 18.1202 223.69 17.5823 224.642 17.2236C225.61 16.865 226.595 16.6857 227.596 16.6857C228.63 16.6857 229.5 16.8223 230.206 17.0956C230.928 17.3517 231.511 17.7616 231.954 18.3251C232.397 18.8716 232.717 19.5718 232.914 20.4256C233.128 21.2624 233.234 22.2614 233.234 23.4227V29.8522H229.541V28.4946H229.468C229.156 29.024 228.68 29.4338 228.04 29.7241C227.416 30.0144 226.735 30.1596 225.996 30.1596C225.504 30.1596 224.995 30.0913 224.47 29.9547C223.944 29.8181 223.46 29.5961 223.017 29.2887C222.59 28.9813 222.238 28.5714 221.959 28.0591C221.679 27.5468 221.54 26.9149 221.54 26.1635C221.54 25.2414 221.778 24.4985 222.254 23.935C222.746 23.3714 223.37 22.936 224.125 22.6286C224.896 22.3212 225.75 22.1163 226.685 22.0138C227.621 21.9113 228.532 21.8601 229.418 21.8601V21.6552C229.418 21.0233 229.205 20.5622 228.778 20.2719C228.351 19.9645 227.826 19.8108 227.203 19.8108C226.628 19.8108 226.07 19.9389 225.528 20.1951C225.003 20.4512 224.552 20.7586 224.174 21.1172L222.131 18.8374Z" fill="black"/>
<path d="M243.831 20.5281C243.65 20.4768 243.47 20.4427 243.289 20.4256C243.125 20.4085 242.961 20.4 242.797 20.4C242.255 20.4 241.796 20.5025 241.418 20.7074C241.057 20.9123 240.762 21.1599 240.532 21.4502C240.318 21.7406 240.162 22.0565 240.064 22.398C239.966 22.7396 239.916 23.0384 239.916 23.2946V29.8522H235.879V17.0956H239.769V18.9399H239.818C240.13 18.291 240.573 17.7616 241.147 17.3517C241.722 16.9419 242.386 16.7369 243.141 16.7369C243.306 16.7369 243.462 16.7455 243.609 16.7626C243.773 16.7796 243.905 16.8053 244.003 16.8394L243.831 20.5281Z" fill="black"/>
<path d="M253.282 22.0138C253.282 21.3478 253.077 20.7757 252.667 20.2975C252.273 19.8194 251.674 19.5803 250.87 19.5803C250.476 19.5803 250.115 19.6486 249.786 19.7852C249.458 19.9048 249.171 20.0755 248.925 20.2975C248.679 20.5195 248.482 20.7842 248.334 21.0916C248.186 21.3819 248.104 21.6893 248.088 22.0138H253.282ZM257 23.6276C257 23.7984 257 23.9691 257 24.1399C257 24.3107 256.992 24.4729 256.975 24.6266H248.088C248.121 24.9852 248.219 25.3097 248.383 25.6C248.564 25.8903 248.785 26.1465 249.048 26.3685C249.327 26.5734 249.631 26.7356 249.959 26.8552C250.303 26.9747 250.656 27.0345 251.017 27.0345C251.658 27.0345 252.199 26.9149 252.642 26.6759C253.085 26.4197 253.447 26.0952 253.726 25.7025L256.532 27.5468C255.958 28.4177 255.195 29.0923 254.243 29.5704C253.307 30.0315 252.216 30.2621 250.968 30.2621C250.049 30.2621 249.179 30.1169 248.358 29.8266C247.538 29.5192 246.816 29.0837 246.192 28.5202C245.585 27.9396 245.101 27.2309 244.739 26.3941C244.395 25.5573 244.222 24.601 244.222 23.5251C244.222 22.4834 244.395 21.5442 244.739 20.7074C245.084 19.8535 245.552 19.1363 246.143 18.5557C246.734 17.958 247.431 17.4969 248.235 17.1724C249.04 16.8479 249.91 16.6857 250.845 16.6857C251.748 16.6857 252.577 16.8479 253.332 17.1724C254.087 17.4798 254.735 17.9323 255.277 18.53C255.818 19.1277 256.237 19.8535 256.532 20.7074C256.844 21.5612 257 22.5346 257 23.6276Z" fill="black"/>
<defs>
<clipPath id="clip0">
<rect width="34" height="38" fill="white"/>
</clipPath>
</defs>
</svg>
